<svg width="64" height="64" viewBox="0 0 64 64" fill="none" xmlns="http://www.w3.org/2000/svg">
<rect width="64" height="64" rx="32" fill="#141111"/>
<rect x="23.7077" y="23.7077" width="16.5846" height="16.5846" rx="2.04615" fill="#E29276" stroke="url(#paint0_radial_59_22122)" stroke-width="0.215385"/>
<g opacity="0.8">
<rect x="25.7" y="25.7" width="12.6" height="12.6" rx="1.75" fill="#DD896C"/>
<rect x="27.8" y="27.8" width="8.4" height="8.4" rx="1.4" fill="#D88062"/>
<rect x="29.9" y="29.9" width="4.2" height="4.2" rx="0.7" fill="#D67A59"/>
</g>
<path d="M15.3748 9.70742H20.1004C20.4273 9.70763 20.6922 9.9732 20.6922 10.3002V20.1C20.6922 20.427 20.4273 20.6926 20.1004 20.6928H10.6502C10.3231 20.6928 10.0574 20.4271 10.0574 20.1V15.0248C10.0575 12.0883 12.4383 9.70753 15.3748 9.70742Z" fill="#3D3238" stroke="url(#paint1_linear_59_22122)" stroke-width="0.215385"/>
<path d="M15.3748 54.2926H20.1004C20.4273 54.2924 20.6922 54.0268 20.6922 53.6998V43.9C20.6922 43.573 20.4273 43.3074 20.1004 43.3072H10.6502C10.3231 43.3072 10.0574 43.5729 10.0574 43.9V48.9752C10.0575 51.9117 12.4383 54.2925 15.3748 54.2926Z" fill="#3D3238" stroke="url(#paint2_linear_59_22122)" stroke-width="0.215385"/>
<path d="M48.6252 9.70742H43.8996C43.5727 9.70763 43.3078 9.9732 43.3078 10.3002V20.1C43.3078 20.427 43.5727 20.6926 43.8996 20.6928H53.3498C53.6769 20.6928 53.9426 20.4271 53.9426 20.1V15.0248C53.9425 12.0883 51.5617 9.70753 48.6252 9.70742Z" fill="#3D3238" stroke="url(#paint3_linear_59_22122)" stroke-width="0.215385"/>
<path d="M48.6252 54.2926H43.8996C43.5727 54.2924 43.3078 54.0268 43.3078 53.6998V43.9C43.3078 43.573 43.5727 43.3074 43.8996 43.3072H53.3498C53.6769 43.3072 53.9426 43.5729 53.9426 43.9V48.9752C53.9425 51.9117 51.5617 54.2925 48.6252 54.2926Z" fill="#3D3238" stroke="url(#paint4_linear_59_22122)" stroke-width="0.215385"/>
<path d="M32.0004 4.10742C36.5799 4.10763 40.2924 7.82081 40.2924 12.4004V19.7227C40.2924 20.2579 39.858 20.6924 39.3227 20.6924H24.6772C24.1419 20.6924 23.7074 20.2579 23.7074 19.7227V12.4004C23.7074 7.82068 27.4207 4.10742 32.0004 4.10742Z" fill="#B7496D" stroke="url(#paint5_linear_59_22122)" stroke-width="0.215385"/>
<path d="M32.0004 59.8926C36.5799 59.8924 40.2924 56.1792 40.2924 51.5996V44.2773C40.2924 43.7421 39.858 43.3076 39.3227 43.3076H24.6772C24.1419 43.3076 23.7074 43.7421 23.7074 44.2773V51.5996C23.7074 56.1793 27.4207 59.8926 32.0004 59.8926Z" fill="#B7496D" stroke="url(#paint6_linear_59_22122)" stroke-width="0.215385"/>
<path d="M59.8926 31.9996C59.8924 27.4201 56.1792 23.7076 51.5996 23.7076H44.2773C43.7421 23.7076 43.3076 24.1421 43.3076 24.6773V39.3229C43.3076 39.8581 43.7421 40.2926 44.2773 40.2926H51.5996C56.1793 40.2926 59.8926 36.5793 59.8926 31.9996Z" fill="#B7496D" stroke="url(#paint7_linear_59_22122)" stroke-width="0.215385"/>
<path d="M4.10742 31.9996C4.10763 27.4201 7.82081 23.7076 12.4004 23.7076H19.7227C20.2579 23.7076 20.6924 24.1421 20.6924 24.6773L20.6924 39.3229C20.6924 39.8581 20.2579 40.2926 19.7227 40.2926H12.4004C7.82068 40.2926 4.10742 36.5793 4.10742 31.9996Z" fill="#B7496D" stroke="url(#paint8_linear_59_22122)" stroke-width="0.215385"/>
<defs>
<radialGradient id="paint0_radial_59_22122" cx="0" cy="0" r="1" gradientUnits="userSpaceOnUse" gradientTransform="translate(32 32) rotate(90) scale(11.025)">
<stop offset="0.827664" stop-color="#E29276"/>
<stop offset="1" stop-color="#F3B19A"/>
</radialGradient>
<linearGradient id="paint1_linear_59_22122" x1="9.95" y1="9.6" x2="21.1444" y2="20.4445" gradientUnits="userSpaceOnUse">
<stop offset="0.826923" stop-color="#402A31" stop-opacity="0"/>
<stop offset="1" stop-color="#69525A"/>
</linearGradient>
<linearGradient id="paint2_linear_59_22122" x1="9.95" y1="54.4" x2="21.1444" y2="43.5555" gradientUnits="userSpaceOnUse">
<stop offset="0.826923" stop-color="#402A31" stop-opacity="0"/>
<stop offset="1" stop-color="#69525A"/>
</linearGradient>
<linearGradient id="paint3_linear_59_22122" x1="54.05" y1="9.6" x2="42.8556" y2="20.4445" gradientUnits="userSpaceOnUse">
<stop offset="0.826923" stop-color="#402A31" stop-opacity="0"/>
<stop offset="1" stop-color="#69525A"/>
</linearGradient>
<linearGradient id="paint4_linear_59_22122" x1="54.05" y1="54.4" x2="42.8556" y2="43.5555" gradientUnits="userSpaceOnUse">
<stop offset="0.826923" stop-color="#402A31" stop-opacity="0"/>
<stop offset="1" stop-color="#69525A"/>
</linearGradient>
<linearGradient id="paint5_linear_59_22122" x1="32" y1="4" x2="32" y2="20.8" gradientUnits="userSpaceOnUse">
<stop offset="0.8125" stop-color="#AF6980" stop-opacity="0"/>
<stop offset="1" stop-color="#AF6980"/>
</linearGradient>
<linearGradient id="paint6_linear_59_22122" x1="32" y1="60" x2="32" y2="43.2" gradientUnits="userSpaceOnUse">
<stop offset="0.8125" stop-color="#AF6980" stop-opacity="0"/>
<stop offset="1" stop-color="#AF6980"/>
</linearGradient>
<linearGradient id="paint7_linear_59_22122" x1="60" y1="32" x2="43.2" y2="32" gradientUnits="userSpaceOnUse">
<stop offset="0.8125" stop-color="#AF6980" stop-opacity="0"/>
<stop offset="1" stop-color="#AF6980"/>
</linearGradient>
<linearGradient id="paint8_linear_59_22122" x1="4" y1="32" x2="20.8" y2="32" gradientUnits="userSpaceOnUse">
<stop offset="0.8125" stop-color="#AF6980" stop-opacity="0"/>
<stop offset="1" stop-color="#AF6980"/>
</linearGradient>
</defs>
</svg>
